<?xml version="1.0" standalone="no"?>
<!DOCTYPE svg PUBLIC "-//W3C//DTD SVG 20010904//EN"
 "http://www.w3.org/TR/2001/REC-SVG-20010904/DTD/svg10.dtd">
<svg version="1.0" xmlns="http://www.w3.org/2000/svg"
 width="512.000000pt" height="512.000000pt" viewBox="0 0 512.000000 512.000000"
 preserveAspectRatio="xMidYMid meet">

<g transform="translate(0.000000,512.000000) scale(0.100000,-0.100000)"
fill="#000000" stroke="none">
<path d="M653 5110 c-94 -19 -178 -87 -222 -180 l-26 -55 0 -2315 0 -2315 26
-55 c33 -70 89 -126 159 -159 l55 -26 1920 0 1920 0 49 25 c63 32 124 93 156
156 l25 49 0 2320 0 2320 -26 55 c-33 70 -89 126 -159 159 l-55 26 -1890 1
c-1039 1 -1909 -2 -1932 -6z m3722 -415 l25 -24 0 -740 c0 -521 -3 -747 -11
-764 -6 -14 -22 -30 -36 -36 -34 -16 -3552 -16 -3586 0 -14 6 -30 22 -36 36
-8 17 -11 243 -11 764 l0 740 25 24 24 25 1791 0 1791 0 24 -25z m-417 -2069
c105 -28 202 -105 202 -160 0 -40 -38 -79 -78 -79 -15 0 -51 16 -81 36 -91 63
-174 71 -262 26 -171 -87 -173 -331 -3 -417 88 -44 177 -36 267 26 60 41 97
45 132 12 30 -28 33 -75 7 -106 -31 -39 -105 -84 -170 -104 -200 -62 -405 28
-495 218 -29 61 -32 76 -32 162 0 86 3 101 32 162 86 183 286 276 481 224z
m-2623 -91 c23 -22 25 -32 25 -120 l0 -95 95 0 c88 0 98 -2 120 -25 16 -15 25
-36 25 -55 0 -19 -9 -40 -25 -55 -22 -23 -32 -25 -120 -25 l-95 0 0 -95 c0
-88 -2 -98 -25 -120 -15 -16 -36 -25 -55 -25 -19 0 -40 9 -55 25 -23 22 -25
32 -25 120 l0 95 -95 0 c-88 0 -98 2 -120 25 -33 32 -33 78 0 110 22 23 32 25
120 25 l95 0 0 95 c0 88 2 98 25 120 15 16 36 25 55 25 19 0 40 -9 55 -25z
m1520 -240 c16 -15 25 -36 25 -55 0 -19 -9 -40 -25 -55 l-24 -25 -271 0 -271
0 -24 25 c-16 15 -25 36 -25 55 0 19 9 40 25 55 l24 25 271 0 271 0 24 -25z
m1519 -801 l26 -27 0 -509 0 -509 -25 -24 -24 -25 -509 0 -509 0 -27 26 -26
27 0 507 0 507 26 27 27 26 507 0 507 0 27 -26z m-1759 -239 c50 -49 15 -135
-55 -135 -19 0 -40 9 -55 25 -16 15 -25 36 -25 55 0 19 9 40 25 55 15 16 36
25 55 25 19 0 40 -9 55 -25z m-1399 -117 l65 -62 59 59 c50 50 65 59 95 59 42
0 72 -26 81 -71 6 -29 1 -38 -57 -98 l-63 -66 59 -59 c50 -50 59 -65 59 -95 0
-42 -26 -72 -71 -81 -29 -6 -38 -1 -98 57 l-66 63 -62 -61 c-69 -67 -91 -78
-131 -63 -30 11 -59 68 -50 97 4 10 34 46 68 80 l60 63 -56 57 c-31 32 -59 69
-62 83 -11 47 35 99 87 100 10 0 48 -28 83 -62z m1639 -123 c16 -15 25 -36 25
-55 0 -19 -9 -40 -25 -55 l-24 -25 -271 0 -271 0 -24 25 c-16 15 -25 36 -25
55 0 19 9 40 25 55 l24 25 271 0 271 0 24 -25z m-240 -240 c50 -49 15 -135
-55 -135 -19 0 -40 9 -55 25 -16 15 -25 36 -25 55 0 19 9 40 25 55 15 16 36
25 55 25 19 0 40 -9 55 -25z"/>
<path d="M3627 4310 c-56 -14 -90 -35 -124 -74 -55 -61 -58 -84 -58 -396 0
-316 3 -336 62 -401 53 -59 105 -74 253 -74 148 0 200 15 253 74 59 65 62 85
62 401 0 313 -3 334 -59 398 -51 58 -103 75 -236 78 -63 2 -132 -1 -153 -6z
m268 -175 l25 -24 0 -271 0 -271 -25 -24 c-23 -24 -31 -25 -135 -25 -104 0
-112 1 -135 25 l-25 24 0 271 0 271 25 24 c23 24 31 25 135 25 104 0 112 -1
135 -25z"/>
<path d="M3563 1188 c-12 -6 -27 -23 -34 -39 -15 -37 2 -82 37 -98 34 -15 514
-15 548 0 55 26 55 112 0 138 -33 15 -520 14 -551 -1z"/>
<path d="M3563 868 c-12 -6 -27 -23 -34 -39 -15 -37 2 -82 37 -98 34 -15 514
-15 548 0 55 26 55 112 0 138 -33 15 -520 14 -551 -1z"/>
</g>
</svg>
